<svg version="1.1" xmlns="http://www.w3.org/2000/svg" viewBox="0 0 917.0999755859375 599.1999664306641" width="917.0999755859375" height="599.1999664306641">
  <!-- svg-source:excalidraw -->
  
  <defs>
    <style>
      @font-face {
        font-family: "Virgil";
        src: url("https://excalidraw.com/Virgil.woff2");
      }
      @font-face {
        font-family: "Cascadia";
        src: url("https://excalidraw.com/Cascadia.woff2");
      }
    </style>
  </defs>
  <rect x="0" y="0" width="917.0999755859375" height="599.1999664306641" fill="#ffffff"></rect><g stroke-linecap="round" transform="translate(10.39996337890625 10.599990844726562) rotate(0 378.4000244140625 38.79998779296875)"><path d="M1.23 -1.95 L758.51 -0.12 L755.61 77.95 L0.6 78.46" stroke="none" stroke-width="0" fill="#82c91e"></path><path d="M0.26 -0.22 C178.92 -1.21, 358.17 -1.46, 756.57 0.55 M0.17 0.1 C225.89 1.1, 452.61 1.13, 756.98 -0.34 M756.33 0.58 C755.17 16.6, 754.48 35.41, 754.92 76.51 M755.87 -0.38 C756.66 29.96, 758.44 58.72, 755.93 78.59 M757.5 77.28 C551.66 78.7, 345.55 79.93, -0.69 78.18 M756.95 77.75 C579.15 79.55, 400.69 79.71, 0.29 77.31 M-0.96 75.73 C-0.61 49.38, -2.07 19.45, -1.17 -0.98 M0.03 77.02 C0.6 58.37, 0.61 41.7, -0.61 0.3" stroke="#087f5b" stroke-width="1" fill="none"></path></g><g stroke-linecap="round" transform="translate(10 10) rotate(0 379.20001220703125 289.59998321533203)"><path d="M-0.02 0.5 C241.46 -1.92, 483.5 -1.6, 758.77 -0.61 M-0.21 -0.21 C189.31 -0.89, 377.65 -0.13, 758.64 -0.37 M757.8 -0.47 C760.21 201.72, 760.46 402.76, 758.63 579.44 M758.58 -0.14 C759.06 201.65, 758.4 403.59, 758.31 579.3 M758.9 578.72 C570.85 580.91, 384.62 580.79, 0.67 579.18 M758.21 578.92 C526.45 579.79, 294.61 580.23, -0.22 579.41 M0.32 579.84 C1.23 352.6, 2.12 125.53, 0.43 -0.32 M-0.14 579.51 C-1.64 381.79, -1.76 184.71, 0.23 0.07" stroke="#087f5b" stroke-width="1" fill="none"></path></g><g stroke-linecap="round" transform="translate(218.79998779296875 29.199989318847656) rotate(0 158 19.199981689453125)"><path d="M-0.8 1.57 L316.19 -0.54 L314.96 37.66 L1.14 37.35" stroke="none" stroke-width="0" fill="#ced4da"></path><path d="M-0.52 -1.39 C63.55 0.14, 128.59 0.04, 314.9 1.05 M0.21 0.53 C105.65 0.18, 211.9 -0.33, 315.58 -0.04 M315.47 1.46 C315.19 13.02, 316.02 27.85, 315.17 37.76 M315.88 -0.55 C316.15 9.36, 315.56 19, 316.87 37.89 M315.81 37.87 C201.66 39.07, 86.61 39.44, -0.41 38.69 M316.25 38.65 C241.03 37.26, 167.35 36.26, 0.16 37.86 M1.05 36.97 C1.13 26.6, -0.08 14.42, -0.35 -1.29 M0.68 37.69 C-0.68 29.1, -0.18 18.29, 0.79 0.51" stroke="#087f5b" stroke-width="1" fill="none"></path></g><g transform="translate(318.79998779296875 36.199974060058594) rotate(0 68.5 12.5)"><text x="0" y="18" font-family="Virgil, Segoe UI Emoji" font-size="20px" fill="#000000" text-anchor="start" style="white-space: pre;" direction="ltr">My ToDo List</text></g><g stroke-linecap="round" transform="translate(222.00006103515625 107.59992980957031) rotate(0 126.39999389648438 15.599998474121094)"><path d="M0 0 C0 0, 0 0, 0 0 M0 0 C0 0, 0 0, 0 0 M-0.72 6.02 C0.8 4.85, 3.04 3.93, 5.67 1.14 M-0.58 6.65 C1.47 4.42, 3.72 1.93, 4.91 0.1 M-1.33 12.08 C3.85 7.35, 5.04 4.53, 11.8 1.07 M-0.64 12.75 C2.31 8.4, 5.34 5.33, 11.27 -0.8 M-0.25 16.89 C4.59 10.44, 8.82 8.37, 14.32 0.74 M-1.01 17.98 C4.06 14.39, 8.08 8.48, 16.47 0.34 M0.12 25.34 C6.18 17.52, 13.83 9.84, 19.73 0.45 M-0.33 23.91 C8.03 15.32, 16.43 5.66, 21.52 0.28 M-1.39 31.95 C11.07 19.22, 19.17 10.3, 26.93 -0.82 M0.93 30.02 C5.48 23.46, 11.97 17.2, 25.54 0.09 M3.84 35.74 C9.02 25.81, 18.19 17.05, 32.25 0.17 M2.12 32.99 C8.56 26.12, 17.05 18.06, 32.03 -0.21 M6.93 32.25 C15.48 24.42, 20.58 18.13, 36.73 0.94 M8.86 33.34 C18.84 20.45, 29.77 7.75, 37.59 0.38 M11.74 35.58 C23.37 18.92, 34.88 8.8, 43.66 -0.98 M12.91 33.78 C23.64 23.11, 33.25 11.64, 43.11 -0.13 M16.99 34.82 C26.89 24, 29.58 19.84, 45.55 1.74 M17.95 34.06 C28.17 23.5, 36.21 13.71, 48.37 -0.55 M24.61 34.86 C32.17 23.71, 39.9 15.45, 53.62 -0.1 M23.52 34.08 C30.82 25.33, 37.45 18.64, 53.13 -0.37 M29.29 34.07 C37.44 24.88, 46.17 13.75, 56.83 1.64 M30.18 34.07 C35.63 26.51, 40.94 18.87, 57.82 0.34 M33.42 34.16 C44.25 21.5, 52.52 9.22, 63.38 -1.94 M34.13 34.68 C43.79 23.19, 52.92 12.4, 64.61 -0.96 M40.62 33.78 C47.47 21.49, 58.17 14.1, 67.67 1.09 M40.33 33.08 C45.44 25.26, 53.56 17.55, 68.07 0.89 M46.73 34.43 C54.6 22.29, 61.01 14.75, 75.84 1.15 M45.12 33.17 C55.83 20.67, 65.37 10.25, 74.29 -1.16 M49.35 34.07 C58.57 22.8, 67.18 17.06, 80.76 0.93 M51.38 33.6 C61.15 20.97, 71.62 9.46, 79.46 -0.23 M54.77 33 C63.36 28.36, 69.25 17.56, 83.52 1.17 M55.08 33.97 C63.93 22.77, 74.51 10.99, 85.07 0.61 M59.51 31.47 C70.65 22.83, 79.44 12.58, 88.44 -1.64 M60.49 32.93 C69.93 22.27, 81.08 10.3, 90.47 0.47 M65.35 35.56 C74.5 24.07, 83.38 13.79, 96.56 -1.48 M66.75 34.32 C76.34 22.91, 83.7 13.07, 96.05 -1.26 M72.75 34.86 C78.65 25.74, 89.21 13.42, 100.65 -1.06 M71.02 33.23 C80.27 23.54, 89.1 15.53, 99.82 -0.74 M75.93 32.21 C86.73 20.68, 97.07 7.45, 106.72 -2.05 M77.08 34.24 C85.19 25.1, 92.68 15.57, 106.53 0.41 M84.32 33.49 C91.6 20.96, 100.93 11.69, 112.99 0.64 M82.5 33.43 C89.38 23.71, 98.15 15.09, 110.37 -0.75 M85.59 33.38 C95.81 24.35, 105.34 13.03, 114.76 1.37 M87.2 32.59 C95.69 25.94, 102.5 17.58, 115.33 0.4 M91.12 33.03 C100.23 24.03, 109.74 14.31, 122.66 1.78 M92.65 33.3 C99.16 26.78, 103.94 19.98, 121.2 0.37 M99.04 33.9 C103.31 23.53, 112.2 15.13, 124.98 0.78 M98.43 33.05 C107.31 21.37, 119.28 10.31, 127.42 0.01 M103.68 31.46 C108.25 26.42, 118.08 16.81, 132.48 1.06 M103.4 33.39 C113.76 21.99, 122.57 11.06, 131.56 -0.68 M110.61 32.97 C115.95 23.88, 122.55 15.78, 137.38 -1.18 M108.28 34.08 C115.46 25.15, 121.61 18.59, 137.98 -0.37 M113.46 31.95 C125.99 22.27, 137.55 9.88, 142.91 1.55 M114.18 33.87 C124.02 22.91, 134.06 10.5, 142.91 -0.34 M120.24 34.18 C128.14 24.52, 132.01 16.25, 146.24 1.75 M118.44 32.97 C128.67 24.44, 136.82 13.2, 149.08 -0.29 M123.57 35.74 C133.05 26.09, 137.64 15.46, 152.03 -1.29 M124.6 33.4 C135.51 20.12, 146.44 8.24, 152.86 -0.26 M129.53 33.47 C139.27 19.38, 151.49 9.33, 159.43 0.22 M130.8 33.83 C141.5 20.57, 151.48 8.91, 158.91 -0.48 M136.72 34.73 C146.19 23.93, 155.5 12, 163.55 0.36 M134.47 33.75 C145.91 22.8, 155.17 10.78, 165.25 0.72 M141.68 35.16 C151.78 21.04, 163.92 7.13, 170.48 1.23 M141.41 33.57 C148.3 23.02, 158.36 14, 169.91 1.11 M145.94 32.43 C157.67 21.3, 164.51 12.09, 174.79 -1.29 M146.45 34.76 C155.82 22.28, 166.71 9.46, 174.07 0.58 M149.52 31.96 C158.41 26.04, 168.9 14.47, 178.53 0.18 M150.55 33.93 C162.12 21.32, 172.76 6.78, 180.67 -0.63 M157.88 32.73 C162.84 26.8, 167.67 20, 184.72 -1.68 M155.41 33.04 C162.49 26.85, 168.78 17.41, 185.53 0.11 M163.49 32.95 C168.93 25.09, 177.32 19.04, 192.35 0.83 M162.65 33.43 C170.04 24.85, 177.31 15.31, 189.98 0 M168.79 31.89 C177.51 24.34, 184.74 13.08, 197.91 0.16 M166.37 34.04 C175.56 24.04, 183.67 16.67, 196 -1.09 M171.69 31.57 C181.22 24.96, 190.97 14.65, 202.33 -0.69 M172.34 33.44 C178.94 27.27, 184.09 19.27, 200.82 -0.49 M176.58 34.55 C185.72 24.67, 188.69 18.04, 208.56 1.55 M176.57 34.03 C184.12 25.38, 191.82 16.88, 206.05 -0.6 M183.82 33.65 C190.61 22.77, 199.86 15.44, 212.49 0.15 M182.45 34.11 C194.39 21.01, 206.42 7.08, 212.34 -0.77 M188.75 33.73 C197.73 23.03, 206.84 10.32, 216.51 0.18 M187.41 34.07 C196.35 23.99, 203.07 15.74, 218.44 -1.2 M195.2 33.4 C198.11 24.7, 205.99 21.38, 224.47 0.23 M193.98 32.43 C201.36 23.54, 210.3 14.06, 221.9 -0.73 M198.46 34.81 C207.43 24.97, 211.1 18.13, 227.21 -1.86 M198.49 34.05 C205.07 25.59, 212.38 19.56, 228.12 -0.84 M202.8 33.38 C215.06 21.39, 228 5.63, 233.54 0.81 M204.13 34.19 C210.35 26.79, 216.68 18.72, 233.04 0.59 M208.47 35.56 C220.6 22.56, 229.22 8.74, 239.09 -1.37 M209.61 32.67 C218.6 22.62, 230.29 10.08, 237.56 0.08 M213.19 32.56 C226.28 22.34, 235.46 10.12, 244.59 -0.47 M214.28 33.98 C225.24 20.65, 236.48 7.48, 243.47 0.96 M219.16 34.12 C226.34 26.23, 232.08 20.11, 250.16 -1.03 M220.74 33.43 C230.78 21.51, 242.21 7.91, 249.38 -0.28 M225.92 35 C233.56 23.5, 242.57 16.1, 255.49 -0.84 M225.33 33.98 C233.97 22.75, 243.93 12.38, 254.47 -0.32 M232.57 33 C234.03 29.14, 242.62 21.04, 252.2 5.9 M230.04 32.66 C237.5 25.55, 243.65 17.56, 254.55 6.1 M236.13 34.91 C241.01 28.91, 244.12 24.57, 253.18 12.66 M236.37 32.91 C242.12 26.77, 248.48 18.63, 252.95 12.72 M240.38 35 C246.49 29.4, 249.34 27.44, 254.42 17.58 M241.83 33.48 C245.1 29, 249.93 23.7, 254.04 19.01 M246.44 33.43 C249.31 31.64, 250.39 27.51, 252.98 24.81 M246.46 34.22 C248.06 31.85, 248.99 30.2, 253.94 25.62" stroke="#ced4da" stroke-width="0.5" fill="none"></path><path d="M0.08 0.23 C74.22 2.6, 152.11 1.4, 252.73 0.14 M0.37 0.63 C101.3 2.06, 201.9 2.3, 252.87 -0.4 M251.24 -1.45 C251.69 7.48, 254.52 12.94, 254.73 32.8 M251.93 -0.91 C253.54 7.07, 253.26 14.79, 253.42 31.05 M252.75 29.94 C164.22 28.29, 76.02 27.75, -1.51 31.83 M252.73 30.79 C189.41 31.73, 124.33 32.88, -0.48 31.12 M1.25 32.26 C-1.27 21.7, 1.26 13.75, -0.91 0.54 M-0.83 31.56 C0.71 25.07, 1.14 18.95, 0.8 -0.76" stroke="#000000" stroke-width="1" fill="none"></path></g><g transform="translate(281.4000549316406 110.6999282836914) rotate(0 67 12.5)"><text x="67" y="18" font-family="Virgil, Segoe UI Emoji" font-size="20px" fill="#000000" text-anchor="middle" style="white-space: pre;" direction="ltr">search &amp; add</text></g><g stroke-linecap="round" transform="translate(502.800048828125 108.39996337890625) rotate(0 21.600006103515625 16)"><path d="M1.38 -0.17 L43.12 1.67 L44.82 33.24 L1.3 33.19" stroke="none" stroke-width="0" fill="#ced4da"></path><path d="M-0.33 0.79 C15.51 -0.31, 30.14 0.77, 44.36 -1.4 M0.73 -0.28 C11.5 0.35, 23.17 -0.87, 42.55 -0.61 M41.47 0.21 C42.43 12.03, 42.09 19.94, 42.36 31.2 M42.65 0.43 C43.67 11.52, 43.61 22.33, 42.59 32.09 M41.56 32.33 C34.47 32.03, 23.55 31.42, -1.48 30.29 M43.53 31.31 C27.36 31.66, 12.21 32.08, 0.96 32.93 M-0.59 32.24 C-1.87 23.78, 1.16 13.55, 1.92 -1.88 M-0.82 31.22 C-0.71 24.55, 0.77 14.93, 0.33 0.1" stroke="#000000" stroke-width="1" fill="none"></path></g><g transform="translate(515.1000061035156 102.09996032714844) rotate(0 11 23)"><text x="11" y="32" font-family="Virgil, Segoe UI Emoji" font-size="36px" fill="#000000" text-anchor="middle" style="white-space: pre;" direction="ltr">+</text></g><g stroke-linecap="round" transform="translate(220.39996337890625 208.89990234375) rotate(0 126.39999389648438 15.599998474121094)"><path d="M0 0 C0 0, 0 0, 0 0 M0 0 C0 0, 0 0, 0 0 M-0.91 6.41 C1.5 4.39, 2.65 3.83, 4.81 1.13 M-0.16 6.32 C1.19 4.73, 2.32 3.37, 5.03 0.15 M1.54 12.01 C2.5 8.55, 8.45 1.5, 10.31 0.37 M-0.32 12.75 C3.75 7.85, 6.35 4.29, 10.49 -0.04 M0.49 17.55 C6 15.66, 6.41 7.57, 16.86 1.03 M-0.44 18.21 C5.09 11.38, 11.41 4.75, 15.32 0.47 M1.25 25.97 C8.61 15.45, 17.45 6.15, 21.73 -0.7 M0.13 23.39 C7.08 15.84, 15.26 7.84, 20.89 -0.57 M-1.58 29.02 C9.18 19.51, 14.94 9.58, 26.8 1.7 M-0.41 31.33 C8.31 21.47, 16.32 11.67, 25.71 -0.67 M4.11 35.3 C14.44 22.72, 22.23 9.25, 31.66 -0.02 M1.8 34.03 C10.75 24.74, 19.11 16.32, 30.98 0.89 M8.81 34.74 C16.07 23.92, 25.98 12.03, 36.05 1.54 M7.02 32.72 C15.61 23.51, 22.96 15.14, 37.48 0.98 M11.22 33.2 C22.13 26.07, 29.67 15.15, 40.88 -0.41 M12.12 34.09 C23.06 22.61, 31.3 13.54, 42.88 0.47 M19.79 33.33 C26.28 24.31, 33.1 13.32, 46.69 -0.54 M18.48 32.79 C23.91 26, 30.61 18.54, 46.68 0.13 M24.63 31.9 C35.65 20.25, 46.86 6.74, 54.67 0.83 M24.33 34.37 C33.44 24.66, 41.22 14.54, 53.53 0.48 M30.5 34.01 C37.24 24.36, 42.07 17.35, 57.16 -0.03 M30.05 33.13 C37.67 22.17, 47.09 12.25, 58.15 -0.3 M35.3 35.39 C41.88 24.55, 51.14 15.79, 62.66 0.03 M35.06 34.02 C42.71 22.4, 51.17 12.56, 64.68 -0.55 M39.08 32.61 C47.49 24.36, 57.24 10.97, 70.3 1.22 M39.22 32.5 C46.87 25.77, 54.11 17.44, 69.56 0.79 M46.54 33.34 C54 23.95, 64.23 9.85, 74.87 -0.86 M45.71 34.4 C56.75 20.6, 67.06 7.47, 74.91 0.05 M52.04 34.59 C56.23 27.23, 64.68 20.86, 81.31 -1.03 M50.34 33.83 C61.67 20.36, 73.2 7.91, 79.4 0.69 M54.07 32.99 C66.34 23.59, 75.72 13, 85.69 -2.25 M56.5 33.04 C62.75 25.31, 70.91 15.39, 85.61 -0.83 M60.27 35.02 C71.76 20.6, 80.97 9.13, 89.76 -1.38 M60.51 34.28 C68.44 25.93, 73.75 18.46, 90.94 0.87 M65.95 35.25 C72.47 23.26, 82.77 14.43, 93.88 1.06 M66.49 33.68 C72.68 25.75, 79.72 16.56, 94.96 -0.12 M71.04 34.61 C77.04 23.79, 85.08 18.75, 99.6 -0.82 M71.71 33.14 C78.83 26.48, 85.89 18.08, 100.29 0.99 M78.63 34.64 C89.23 19.77, 98.13 6.83, 106.58 -0.1 M77.51 34.21 C83.84 25.34, 92.6 16.41, 105.98 -0.56 M83.98 31.7 C91.27 27.29, 95.4 15.95, 111.16 1.29 M82.67 33.94 C92.26 23.76, 100.7 12.79, 110.37 0.91 M88.96 35.29 C95.74 23.34, 103.38 12.89, 114.65 -0.52 M88.25 32.75 C94.42 24.08, 103.91 16.47, 115.83 0.05 M91.11 34.24 C101.59 23.11, 111.33 9.69, 121.14 -0.77 M92.98 32.35 C103.89 21.27, 113.55 9.77, 122.9 0.67 M98.11 34.98 C105.46 26.33, 111.23 17.59, 127.29 0.38 M98.17 33.58 C104.92 24.55, 111.44 17.63, 126.46 -0.17 M104.81 31.8 C114.75 19.43, 128.4 5.08, 130.62 0.88 M103.02 32.28 C112.64 23.78, 122.13 12.82, 132.43 0.48 M107.68 33.09 C116.6 24.55, 122.8 14.31, 136.1 -0.96 M109.56 33.18 C118.84 21.07, 129.75 7.81, 136.66 -0.65 M113.2 32.35 C124.34 24.21, 131.56 12.04, 145.05 -0.24 M113.32 34.53 C123.84 22.27, 133.02 12.47, 142.31 0.77 M119.61 34.65 C128.02 23.19, 134.96 16.06, 149.72 0.81 M119.53 34.21 C126.28 24.36, 135.41 14.48, 148.69 0.62 M122.72 35.2 C133.71 24.52, 139.03 15.02, 154.25 -0.98 M125.22 33.86 C136.15 20.9, 146.35 9.12, 154.69 0.13 M128.23 34.29 C137.71 22.94, 147.81 14.07, 157.18 0.63 M129.99 33.52 C140.2 22.08, 151.47 8.82, 159.61 -0.17 M134.23 35.57 C145.89 21, 157.98 7.09, 164.43 -0.57 M134.87 33.47 C141.37 27.11, 148.57 17.95, 164.57 -0.64 M140.24 32.29 C152.53 20.13, 162.89 7.07, 167.85 -0.91 M139.67 34.14 C149.53 23.39, 156.41 13.5, 169.32 -0.63 M145.63 33.54 C155.89 20.38, 169.89 6.58, 174.16 -0.63 M145.9 33.99 C153.9 24.15, 162.82 13.17, 175.72 -0.58 M150.71 34.53 C157.56 24.96, 164.55 15.68, 179.5 -1.61 M152.11 33.32 C161.6 23.03, 170.98 10.18, 180.51 -0.19 M155.17 34.82 C165.27 23.47, 175.12 12.32, 186.39 -1.14 M156.77 34.23 C162.28 25.29, 169.29 17.56, 184.75 -0.52 M163.1 32.54 C171.43 20.48, 184.56 9.35, 190.27 -1.64 M161.66 32.44 C172.64 22.28, 183.78 9.75, 190.69 -0.11 M165.49 34.72 C177.04 23.49, 185.87 12.79, 196.45 -0.45 M166.74 33.21 C174.51 24.38, 181.95 17.44, 197.09 -1.11 M173.23 31.46 C180.3 25.31, 189.5 16.97, 202.67 0.46 M171.49 33.13 C180.58 23.04, 189.71 13.07, 202.17 0.58 M175.61 34.21 C189.63 23.04, 198.26 9.91, 208.04 0.7 M177.87 34.11 C185.24 25.51, 192.11 18.31, 206.94 -0.81 M181.31 34.04 C189.69 23.68, 196.94 18.43, 211.59 -0.24 M183.58 33.16 C190.93 24.95, 197.51 15.51, 212.1 0.99 M188.91 31.87 C199 21, 210.39 5.88, 217.24 -0.79 M189.04 34.33 C196.09 25.47, 202.52 16.99, 217.36 0.11 M191.91 32.7 C202.2 23.79, 212.34 12.17, 224.3 0.98 M194.71 32.52 C204.24 20.02, 215.55 8.17, 222.41 0.45 M197.17 31.91 C206.41 24.62, 216.14 12.53, 228.49 1.59 M197.96 33.43 C204.55 25.57, 210.47 18.92, 228.2 -0.45 M205.98 33.44 C215.32 24.33, 220.64 11.06, 232.43 -1.56 M204.49 33.36 C209.5 25.71, 215.83 18.87, 233.87 0.47 M208.51 32.14 C219.55 21.3, 231.78 8.58, 237.98 0.74 M209.14 33.16 C216.32 24.95, 221.75 18.14, 237.46 0.38 M216.84 31.91 C224.3 19.48, 236.66 10.12, 244 0.09 M215.32 34.03 C224.99 21.74, 235.07 9.93, 244.06 0.73 M219.45 32.03 C230.53 20.5, 243.52 7.53, 248.2 0.92 M219.89 33.47 C226 24.74, 234.15 18.35, 247.94 -0.63 M225.55 34.13 C234.19 24.12, 243.78 11.66, 254.74 0.28 M225.8 33.84 C235.88 21.36, 246.52 9.71, 254.69 -0.12 M230.88 32.67 C238.45 26.25, 242.56 18.53, 254.18 9.08 M230.34 32.5 C240.33 22.15, 249.14 13.17, 253.37 6.54 M235.49 33.48 C238.41 27.9, 243.17 22.58, 252.23 12.77 M235.26 33.98 C241.8 26.2, 246.66 20.97, 253.77 12.55 M240.13 32.78 C243.82 30.13, 250.29 24.12, 255.1 20.62 M241.44 32.6 C245.34 28.95, 247.58 24.67, 254.13 19.06 M245.24 34.6 C249.47 29.8, 252.25 27.97, 254.17 24.59 M246.04 34 C247.57 31.72, 249.83 29.74, 252.92 26.02" stroke="#ced4da" stroke-width="0.5" fill="none"></path><path d="M0.67 0.53 C97.22 -1.6, 194.87 -3.12, 252.96 0.43 M-0.52 -0.59 C87.42 0.15, 173.99 -0.05, 252.23 0.72 M251.21 -0.76 C254.32 9.47, 251.55 22.27, 252.85 32.36 M253.29 -0.57 C252.31 10.28, 253.8 19.65, 253.31 30.87 M253.56 29.62 C162.89 30.92, 73.92 28.57, -0.48 31.28 M252.9 30.54 C183.4 32.63, 113.69 32.3, 0.62 30.67 M-0.94 31.18 C-2.01 25.54, -0.14 15.21, -1.87 1.42 M0.99 32.17 C1 18.29, -0.64 7.94, 0.23 0.71" stroke="#000000" stroke-width="1" fill="none"></path></g><g transform="translate(319.7999572753906 211.9999008178711) rotate(0 27 12.5)"><text x="27" y="18" font-family="Virgil, Segoe UI Emoji" font-size="20px" fill="#000000" text-anchor="middle" style="white-space: pre;" direction="ltr">item 1</text></g><g stroke-linecap="round" transform="translate(546.3999633789062 210.4999542236328) rotate(0 21.600006103515625 16)"><path d="M0.57 -1.78 L43.72 0.29 L42.13 32.05 L1.78 32.62" stroke="none" stroke-width="0" fill="#fa5252"></path><path d="M0.57 0.36 C18.6 -1.65, 34.08 0.39, 44.1 0.71 M0.24 0.72 C13.32 0.79, 27.03 1.21, 43.53 0.43 M44.59 -0.92 C41.56 10.18, 43 18.58, 43.28 33.85 M42.43 0.8 C44.07 11.42, 43.87 21.13, 43.73 32.24 M42.49 33.06 C32.38 29.74, 21.46 31.68, -0.48 30.82 M43.73 32.81 C29.3 32.06, 14.81 31, -0.55 32.85 M-1.74 33.99 C0.27 20.85, -1.72 12.49, 1.69 -0.75 M0.88 31.08 C-1.08 24.23, -0.08 15.72, 0.66 -0.44" stroke="#000000" stroke-width="1" fill="none"></path></g><g transform="translate(557.0999450683594 201.7999267578125) rotate(0 11 23)"><text x="11" y="32" font-family="Virgil, Segoe UI Emoji" font-size="36px" fill="#000000" text-anchor="middle" style="white-space: pre;" direction="ltr">X</text></g><g stroke-linecap="round" transform="translate(168.39996337890625 208.39996337890625) rotate(0 16.4000244140625 16.399993896484375)"><path d="M-0.01 -0.72 C9.91 1.56, 16.55 -1.05, 30.99 -1.78 M0.35 0.31 C7.48 -0.3, 15.47 -0.87, 33.79 -0.94 M31.59 -0.39 C33.07 8.04, 31.32 18.77, 33.53 33.44 M33.09 0.87 C33.45 10.64, 32.87 19.48, 33.55 32.92 M34.57 34.61 C26.25 34.33, 19.22 34.1, 0.4 31.91 M31.94 32.35 C22.06 33.65, 12.05 32.57, 0.5 33.61 M1.73 33.92 C1.44 19.69, 0.7 7.7, 0.24 1.06 M0.3 33.65 C0.16 20.54, -0.35 10.42, 0.59 0.49" stroke="#000000" stroke-width="1" fill="none"></path></g><g stroke-linecap="round" transform="translate(221.60000610351562 271.29986572265625) rotate(0 126.39999389648438 15.599998474121094)"><path d="M0 0 C0 0, 0 0, 0 0 M0 0 C0 0, 0 0, 0 0 M-0.6 6.75 C1.58 4.43, 1.34 3.43, 5.63 1.1 M-0.61 6.54 C0.71 5.04, 2.11 3.57, 4.62 0.24 M0.72 12.34 C2.81 7.5, 6.92 5.42, 11.07 0.03 M-0.37 12.71 C4.26 7.89, 8.87 2.53, 10.94 -0.71 M0.56 18.53 C5.15 12.82, 9.86 5.16, 14.54 0.84 M-0.79 18.88 C4.56 12.98, 7.75 8.78, 16.47 -0.54 M1.76 24.24 C3.1 17.39, 9.38 15.92, 23.16 0.13 M0.54 23.28 C5.7 16.97, 12.36 10.1, 20.58 -0.83 M-0.23 31.69 C7.96 22.73, 10.89 16.76, 25.24 -1.2 M-0.2 30.93 C5.65 23.28, 12.25 18.05, 26.15 -0.18 M0.83 34.04 C13.35 21.74, 26.55 5.69, 32.23 0.71 M2.16 34.84 C8.51 27.29, 14.98 19.06, 31.72 0.49 M7.15 35.46 C19.29 22.46, 27.9 8.65, 37.78 -1.47 M8.3 32.57 C17.29 22.52, 28.97 9.98, 36.24 -0.02 M11.22 33.21 C24.52 22.74, 33.92 10.29, 43.28 -0.57 M12.31 34.64 C23.52 21.01, 35.02 7.55, 42.16 0.86 M17.85 34.02 C25.02 26.13, 30.76 20.01, 48.85 -1.13 M19.42 33.33 C29.46 21.41, 40.9 7.81, 48.07 -0.38 M24.6 34.9 C32.44 23.18, 41.65 15.55, 54.83 -1.69 M24.02 33.88 C32.86 22.41, 43.02 11.81, 53.81 -1.17 M31.26 32.9 C34.06 27.54, 43.96 17.94, 56.78 -0.99 M28.72 32.56 C37.95 23.44, 45.82 13.48, 59.14 -0.79 M34.82 34.81 C42.56 25.54, 48.51 17.94, 63.02 -0.27 M35.06 32.81 C44.93 22.02, 55.36 9.19, 62.78 -0.21 M39.02 34.98 C49.9 24.11, 57.19 17.12, 69.54 -1.47 M40.55 33.38 C49.49 22.39, 60.02 10.55, 69.14 0.04 M45.31 33.02 C56.12 23.55, 63.56 9.74, 73.62 -1.53 M45.36 34.46 C51.7 26.15, 56.76 19.28, 75.36 -0.05 M50.4 31.54 C58.57 22.07, 67.25 16.44, 80.71 1.39 M51.43 33.75 C58.61 23.85, 68.64 13.58, 79.97 0.21 M57.17 33.97 C64.45 22.44, 74.65 11.66, 86.02 1.65 M55.07 34.68 C67.29 20.12, 78.11 8.73, 86.01 0.3 M60.29 34.21 C69.81 20.73, 80.92 8.6, 89.47 -0.1 M62.1 32.43 C71.21 20.57, 84.05 8.34, 89.68 0.64 M65.1 34.48 C77.29 22.72, 88.43 9.51, 97.23 0.79 M66.49 34.14 C74.25 24.05, 83.68 12.97, 95.41 0.68 M73.21 35 C80.99 23.8, 89.66 15.35, 100.68 -1.24 M71.47 32.98 C81 21.68, 89.46 12.21, 100.53 -0.94 M77.43 31.78 C87.15 25.56, 95.04 14.69, 105.92 -0.22 M76.15 34.31 C83.92 23.88, 92.6 15.34, 106.4 -0.29 M83.31 34.31 C95.41 18.76, 104.67 5.69, 112.78 -0.93 M82.64 33.78 C89.7 22.94, 98.01 15.18, 110.98 0 M88.11 35.42 C94.67 23.09, 104.95 11.54, 115.67 -0.37 M86.72 33.49 C96.86 23.77, 105.55 14.44, 115.36 -0.41 M94.34 32.9 C101.15 25.1, 107.4 14.54, 121.85 -1.75 M92.9 34.05 C103.08 20.01, 113.43 9.13, 121.64 0.81 M96.72 35.36 C105.94 23.36, 115.4 12.6, 125.7 -0.51 M97.09 32.78 C105.52 25.17, 110.28 17.48, 126.84 1.07 M103.71 31.9 C113.27 24.53, 121.92 11.87, 133.59 -1.85 M103.72 33.78 C112.47 21.48, 121.82 11.42, 133.35 -0.33 M108.47 33.92 C116.18 24.67, 122.62 13.92, 138.87 1.11 M108.34 34.09 C115.41 26.53, 121.14 19.92, 137.59 -0.01 M113.77 33.58 C125.66 21.78, 134.58 9.72, 143.35 0.96 M114.12 34.54 C125.52 20.39, 137.74 7.62, 143.1 -0.45 M118.19 33.81 C128.05 20.2, 138.96 9.66, 148.32 1.88 M119.72 34.15 C127.57 24.04, 134.81 14.72, 147.21 0.22 M122.48 34.33 C129.97 26.76, 137.24 17.53, 152.07 1.27 M125.24 34.48 C132.13 23.73, 140.22 15.39, 154.1 0.24 M130.34 34.11 C140.96 19.21, 152.33 8.03, 156.83 -0.43 M130.67 32.5 C139.09 22.43, 150.57 9.29, 159.48 0.46 M135.45 33.16 C145.47 22.18, 156.31 7.85, 166.33 -1.99 M134.48 34.78 C141.18 26, 146.05 18.89, 163.71 0.35 M138.98 34.26 C148.25 24.38, 157.08 14.04, 168.77 0.32 M140.82 33.5 C151.52 20.01, 164.48 5.95, 170.39 0.22 M144.57 32.71 C154.92 23.31, 160.51 15.3, 174.34 -1.48 M146.07 34.7 C152.65 25.83, 159.41 16.69, 175.52 -0.72 M151.84 34.09 C157.58 25.13, 168.21 16.2, 178.17 -1.36 M152 34.3 C159.77 22.48, 168.59 12.34, 180.1 -0.18 M155.37 32 C165.3 23.69, 170.94 16.99, 185.92 -1.51 M156.41 34.32 C166.43 21.25, 176.9 8.78, 185.28 -0.73 M162.23 33.8 C167.4 24.09, 174.28 18.25, 192.68 1.42 M162.21 32.89 C169.66 24.76, 175.94 18, 190.96 0.39 M166.98 34.41 C171.68 28.94, 177.54 19.07, 196.54 -1.99 M166.1 34.51 C173.12 27.5, 178.42 19.17, 196.93 -0.65 M173.12 33.97 C183.18 22.69, 193.17 7.42, 201.56 -0.08 M171.65 34.06 C178.39 26.62, 183.51 19.23, 201.5 -0.12 M176.17 31.7 C182.93 25.6, 190.54 17.12, 207.27 1.53 M177.94 32.99 C186.17 23.82, 194.7 13.98, 206.61 -0.62 M181.08 31.55 C190.26 24.22, 197.86 16.16, 211.7 1.78 M182.69 33.41 C192.95 20.81, 202.46 10.64, 212.45 1.06 M189.33 32.02 C198.6 23.24, 209.44 11.99, 216.82 -2.14 M188.89 34.25 C195.33 26.45, 201.68 19.5, 216.63 0.02 M192.32 31.87 C201.68 26.29, 208.66 16.01, 223.61 -0.99 M193.91 33.35 C200.81 25.35, 207.41 17.32, 222.73 -0.52 M198.48 31.88 C207.57 25.93, 213.77 17.11, 229.52 0.22 M198.13 33.61 C207.25 23.85, 216.33 13.12, 227.5 -1.24 M202.67 32.62 C212.35 26.11, 219 17.44, 231.45 0.01 M204.06 33.11 C215.68 19.28, 226.69 8.12, 233.44 -0.47 M209.27 32.17 C218.77 20.74, 233.1 8.24, 238.66 -1.07 M209 33.21 C218.56 24.12, 226.04 13.7, 237.26 0.63 M213.59 31.88 C222.87 20.8, 234.26 11.54, 242.99 1.54 M214.09 32.73 C224.88 22.43, 235.7 11.21, 243.85 0.42 M220.95 34.15 C230.87 21.85, 240.46 9.84, 249.15 -1.56 M219.03 34 C226.25 26.21, 233.51 16.7, 248.11 1.23 M223.49 32.86 C233.31 24.88, 242.11 16.85, 254.94 1.49 M224.48 33.82 C234.85 22.78, 242.63 12.26, 254.8 0.9 M230.43 35.45 C237.46 25.29, 243.36 18.39, 251.61 8.61 M229.97 33.74 C236.74 25.13, 244.81 17.71, 254.55 8.02 M234.4 32.88 C239.81 27.81, 242.36 26.08, 253.16 11.93 M235.85 34.53 C240.57 27.7, 246.06 22.32, 254.76 12.36 M240.27 34.07 C244.8 27.55, 249.95 23.3, 254.18 18.67 M241.69 33.01 C244.2 29.75, 247.59 25.3, 253.18 18.26 M247.18 32.76 C248.73 31.02, 249.78 30.21, 252.34 24.8 M246.67 33.97 C247.73 31.7, 249.08 30.24, 253.06 25.71" stroke="#ced4da" stroke-width="0.5" fill="none"></path><path d="M-1.36 -1.15 C71.37 3.11, 145.61 1.43, 251.56 0.01 M-0.52 0.45 C98.76 1.53, 197.08 0.28, 253.3 -0.65 M254.5 -1.01 C253.69 6.62, 252.3 13.55, 251.82 29.75 M252.04 -0.7 C252.48 7.82, 252.02 13.29, 252.63 31.54 M254.16 30.88 C190.19 29.67, 128.75 31.42, 1.35 31.76 M253.47 31.27 C186.99 33.47, 120.17 32.82, -0.57 31.09 M1.99 29.39 C1.43 22.59, -0.61 12.2, 1.58 0.42 M-0.43 31.54 C0.84 22.08, 1.04 15.45, -0.33 -0.83" stroke="#000000" stroke-width="1" fill="none"></path></g><g transform="translate(316.5 274.39986419677734) rotate(0 31.5 12.5)"><text x="31.5" y="18" font-family="Virgil, Segoe UI Emoji" font-size="20px" fill="#000000" text-anchor="middle" style="white-space: pre;" direction="ltr">item 2</text></g><g stroke-linecap="round" transform="translate(547.6000061035156 272.89991760253906) rotate(0 21.600006103515625 16)"><path d="M0.11 -0.76 L41.46 0.5 L44.63 33.77 L0.86 33.02" stroke="none" stroke-width="0" fill="#fa5252"></path><path d="M-1.29 1.97 C10.71 0.21, 18.04 0.32, 45.02 1.56 M-0.1 0.8 C10.36 -0.99, 22.82 -1.04, 42.31 0.68 M43.88 0.05 C42.76 8.18, 42.49 14.11, 41.78 32.39 M42.82 0.68 C42.11 6.42, 42.79 15.16, 42.67 31.56 M43.03 31.77 C34.15 33.83, 24.6 32.61, -0.73 33.88 M44.13 32.51 C26.95 31.76, 8.78 31.91, 0.14 32.12 M1.47 33.19 C-0.89 24.27, 1.26 15.76, -0.64 -0.42 M0.78 31.24 C1.12 25.48, -0.19 16.21, -0.06 0.64" stroke="#000000" stroke-width="1" fill="none"></path></g><g transform="translate(558.2999877929688 264.19989013671875) rotate(0 11 23)"><text x="11" y="32" font-family="Virgil, Segoe UI Emoji" font-size="36px" fill="#000000" text-anchor="middle" style="white-space: pre;" direction="ltr">X</text></g><g stroke-linecap="round" transform="translate(169.60000610351562 270.7999267578125) rotate(0 16.4000244140625 16.399993896484375)"><path d="M0.93 -0.09 C6 -0.31, 16.86 1.24, 31.94 -1.28 M-0.74 -0.75 C12.27 -1.06, 22.41 0.42, 32.23 0.85 M32.09 0.4 C31.93 6.73, 31.49 16.75, 31.43 31.27 M31.96 -0.99 C32.51 7.88, 32.15 14.65, 32.15 33.64 M33.89 34.72 C25.28 33.46, 13.68 34.64, 1.8 34.46 M33.4 32.52 C21.96 32.84, 12.67 33.09, -0.4 33.79 M-0.57 33.4 C1.34 26.36, -0.88 18.65, -1.33 -0.86 M0.98 33.76 C-0.58 21.02, -0.32 11.54, 0.06 -0.38" stroke="#000000" stroke-width="1" fill="none"></path></g><g stroke-linecap="round" transform="translate(217.60000610351562 329.1000061035156) rotate(0 126.39999389648438 15.599998474121094)"><path d="M0 0 C0 0, 0 0, 0 0 M0 0 C0 0, 0 0, 0 0 M-0.89 5.95 C0.92 5.76, 2.07 2.78, 5.57 1.06 M-0.3 6.07 C1.45 4.64, 2.18 3.3, 4.94 0.18 M-0.59 11.69 C2.7 9.51, 6.22 6.55, 10.98 -0.71 M0.65 11.73 C3.87 8.17, 7.27 2.82, 11.09 -0.5 M-0.69 16.66 C5.68 11.85, 11.59 8.88, 15.5 1.61 M0.33 18.08 C6.16 12.04, 12.3 3.71, 16.16 0.38 M0.96 23.17 C5.43 16.88, 12.78 9.99, 22.25 -1.31 M-0.68 23.79 C5.76 19.21, 10.62 13.9, 20.86 -0.44 M-0.41 28.7 C8.22 22.09, 12.2 13.71, 24.45 0.6 M0 30.24 C10.19 19.37, 20.81 5.98, 26.76 1 M2.49 33.67 C10.68 24.62, 21.35 11.96, 30.9 0.92 M3.13 33.01 C8.63 25.26, 16.87 18.23, 30.96 0.01 M9.36 33.82 C17.66 20.98, 28.51 8.49, 36.53 -1.15 M8.86 33.94 C17.07 24.92, 23.77 13.56, 37.15 1.05 M14.08 34.82 C23.11 19.56, 36.64 8.42, 43.41 1.4 M12.98 33.31 C20.68 24.3, 30.09 13.36, 42.91 -0.4 M18.29 33.13 C24.86 26.45, 34.58 17.92, 47.29 1.74 M18.79 34.36 C29.13 22.15, 37.74 11.74, 46.63 0.02 M23.28 33.33 C31.84 24.19, 40.17 14.94, 54.54 1.33 M23.4 34.23 C32.87 22.76, 42.43 12.11, 52.88 -0.59 M31 34.34 C41.04 22.25, 51.21 11.36, 56.7 0.29 M29.11 33.82 C35.33 26.58, 42.05 18.42, 57.29 -0.45 M34.53 35.71 C43.75 21.52, 58.7 6.41, 63.44 -0.45 M34.24 33.67 C41.14 25.49, 47.62 19.32, 63.9 0.69 M39.13 31.8 C48.95 22.6, 61.26 9.32, 69.08 -0.85 M40.57 33.83 C47.28 26.1, 53.56 18.49, 68.06 -0.5 M44.67 34.11 C54.02 19.96, 67.99 8.7, 73.6 0.49 M44.16 33.74 C51.76 26.07, 56.2 21.12, 73.78 -1.11 M50.7 33.46 C57.76 25.75, 62.15 19.04, 81.13 0.58 M50.75 34.1 C58.83 24.81, 66.31 15.7, 78.65 -0.08 M54.89 34.29 C62.46 23.75, 72.74 13.97, 84.93 -1.74 M54.64 32.73 C61.52 26.34, 67.87 20.06, 85.16 -0.36 M62.09 32.89 C72.86 21.69, 81.38 11.48, 89.92 0.48 M62.04 32.49 C68.88 24.31, 77.96 14.7, 89.61 1.02 M66.78 35.65 C76.94 22.54, 84.08 13.05, 93.68 0.54 M65.97 33.11 C72.34 26.23, 80.01 18.17, 95.48 -1.25 M70.08 33.3 C80.73 22.01, 89.04 13.73, 100.92 0.36 M71.62 33.09 C78.77 26.86, 85.15 18.18, 100.3 -0.79 M78.27 35.2 C88.1 20.63, 100.44 7.42, 104.5 0.68 M77.25 33.55 C85.88 25.19, 92.28 14.31, 107.01 0.24 M83.79 31.53 C86.55 26.78, 93.58 18.72, 111.94 -0.63 M81.51 34.14 C90.03 25.04, 97.01 17.86, 110.87 -0.89 M87.71 31.59 C95.35 23.29, 103.4 14.56, 117.74 -1.62 M88.39 32.89 C98.61 21.24, 109.5 7.6, 116.15 1.06 M92.75 34.02 C98.98 25.41, 103.51 20.68, 121.18 -1.73 M92.54 34.09 C102.81 22.41, 114.08 10.47, 122.3 -0.51 M97.78 33.08 C104.99 25.44, 114.1 13.9, 128.1 0.71 M98.14 34.18 C108.98 21.62, 121.81 7.69, 126.11 0.07 M102.83 32.86 C110.3 24.64, 115.51 19.11, 131.22 -0.55 M104.32 33.58 C113.26 22.4, 123.65 10.65, 132.39 -0.67 M107.57 33.57 C118.52 25.02, 125.01 14.07, 136.69 -1.37 M108.01 32.63 C119.73 21.35, 129.4 9.37, 136.92 0.6 M111.66 34.51 C122.3 22.41, 134.37 9.75, 145.02 -1.06 M112.66 34.17 C120.54 25.34, 128.49 18.47, 143.74 -0.2 M120.53 32.58 C125.68 27.52, 131.5 20.24, 149.65 -0.03 M118.38 33.67 C124.37 25.7, 132.19 19.5, 148.09 -0.59 M123.17 32.79 C130.47 24.37, 136.63 15.48, 153.9 -1.62 M124.12 33.37 C133.54 24.04, 141 13.71, 153.76 0.25 M128.48 35.24 C139.3 22.47, 144.1 16.31, 157.49 2.19 M130.39 32.89 C136.43 25.85, 142.19 18.98, 157.95 -0.56 M135.73 33.4 C144.57 22.95, 153.68 10.28, 165.56 1.03 M134.12 33.12 C145.8 22.27, 157.61 9.33, 164.67 0.21 M139.62 32.32 C153.34 19.38, 161.31 8.71, 171.11 0.37 M140.04 34.08 C148.27 24.11, 157.26 14.44, 169.62 -0.18 M144.73 34.93 C154.64 22.18, 163.83 12.29, 176.07 -0.22 M145.55 32.81 C155.7 21.26, 165.95 9.35, 175.53 -0.59 M150.53 32.23 C159.3 22.27, 167.7 14.34, 181.76 -0.8 M152.1 33.22 C162.68 19.97, 174.2 7.12, 179.06 -0.12 M157.92 33.59 C168.53 20.74, 177.43 5.98, 185.89 1.16 M156.09 34 C166.65 22.48, 175.1 12.59, 186.18 -0.24 M162.17 32.97 C171.54 22.8, 176.64 13.76, 189.08 1.03 M162.19 32.47 C169.77 22.8, 177.92 14.14, 191.02 1.11 M167.45 35.19 C177.69 23.31, 186.98 12.63, 195.85 1.3 M166.26 34.45 C173.9 25.33, 180.66 17.98, 197.28 -0.63 M171.85 34.18 C178.89 22.93, 186.72 16.43, 201.09 1.81 M172.71 34.17 C182.04 21.58, 191.56 11.67, 201.08 -0.78 M177.84 35.21 C185.51 22.99, 197.24 12.41, 207.13 -2.02 M177.38 34.11 C188.94 19.7, 200.83 6.69, 206.32 0.51 M181.28 33.14 C188.82 22.75, 197.55 15.21, 210.18 -0.89 M182.9 32.88 C192.42 22.12, 203.94 10.04, 211.61 0.09 M189.96 34.71 C197.54 21.71, 207.63 10.34, 217.33 -1.41 M187.59 33.11 C199.39 21.92, 208.85 8.9, 217.59 -0.32 M192.54 32.74 C199.67 28.25, 204.18 20.81, 221.11 0.15 M192.8 33.31 C203.37 23.12, 213.7 11.17, 221.82 -0.22 M197.09 32.41 C207.45 22.8, 214.18 16.86, 228.4 0.13 M197.82 33.77 C208.37 23.09, 217.77 10.5, 228.18 -0.48 M204.07 33.49 C210.92 23.72, 218.9 16.94, 235.01 1.75 M205.25 32.38 C213.09 22.79, 223.78 9.9, 233.71 0.55 M208.86 32.62 C219.96 22.89, 228.05 10.43, 237.99 2.02 M209.85 32.58 C216.67 23.97, 226.72 15.46, 237.35 -0.35 M214.71 33.54 C223.8 24.93, 230.56 13.31, 245.41 -1.64 M215.92 33.18 C220.43 27.2, 226.53 20.94, 244.1 0.85 M219.29 33.32 C230.02 22.04, 237.89 11.01, 250.13 -0.99 M220.23 34.26 C226.74 26.16, 233.69 17.23, 249.16 -0.41 M222.99 33.41 C228.87 25.33, 235.68 18.67, 253.53 -1.17 M224.64 33.77 C231.55 26.55, 235.68 21.2, 253.98 0.06 M230.76 34.08 C235.98 28.76, 240.06 18.59, 253.33 8.54 M230.35 33.68 C236.18 27.56, 240.4 21.17, 252.56 6.12 M233.81 32.98 C240.15 27.64, 247.34 21.15, 252.45 11.42 M236.01 34.1 C240.84 29.2, 243.72 23.34, 254.6 13.57 M242 32.16 C246.09 31.03, 246.82 25.45, 252.43 20.54 M240.46 33.88 C244.57 29.6, 247.84 24.76, 253.26 19.14 M246.35 32.83 C246.92 32.06, 249.52 30.68, 253.74 25.18 M245.8 34.25 C247.66 31.58, 249.66 30.55, 253.96 25.69" stroke="#ced4da" stroke-width="0.5" fill="none"></path><path d="M1.52 -0.12 C86.86 -0.28, 173.2 0.43, 253.87 0.74 M-0.71 0.7 C58.31 -1, 117.8 -0.71, 253.27 0.28 M254.36 0.53 C252.12 7.18, 254.74 16.54, 254.26 29.36 M253.32 0.35 C252.67 9.94, 252.05 18.53, 253.48 31.93 M253.16 30.51 C181.89 29.19, 108.46 32.15, 0.04 32.62 M253.52 31.41 C195.6 30.2, 138.77 30.07, 0.34 30.54 M-1.62 31.59 C1.3 20.58, 0.7 11.66, 0.14 -0.46 M0.82 30.79 C0.55 20.6, -0.31 8.09, 0.88 0.07" stroke="#000000" stroke-width="1" fill="none"></path></g><g transform="translate(312.5 332.2000045776367) rotate(0 31.5 12.5)"><text x="31.5" y="18" font-family="Virgil, Segoe UI Emoji" font-size="20px" fill="#000000" text-anchor="middle" style="white-space: pre;" direction="ltr">item 3</text></g><g stroke-linecap="round" transform="translate(543.6000061035156 330.70005798339844) rotate(0 21.600006103515625 16)"><path d="M-1.2 -0.01 L42.78 -1.6 L44.17 33.11 L-0.1 31.33" stroke="none" stroke-width="0" fill="#fa5252"></path><path d="M0.41 -1.54 C11.1 -0.63, 23.15 0.94, 41.83 0.34 M-0.24 -0.21 C15.7 -0.21, 30.01 -0.03, 42.78 -0.17 M42.58 -0.86 C45.45 11.97, 44.91 21.19, 43.39 32.9 M42.93 0.28 C42.47 6.06, 44.05 14.41, 43.05 31.36 M44.44 30.22 C30.8 33.68, 19.68 33.56, -1.46 32.76 M43.38 31.31 C31.98 31.26, 19.56 31.29, 0.15 31.64 M1.19 31.21 C0.85 19.34, 0.4 5.97, 1.3 1.34 M0.76 32.78 C-0.36 24.22, 0.62 17.2, -0.03 0.56" stroke="#000000" stroke-width="1" fill="none"></path></g><g transform="translate(554.2999877929688 322.0000305175781) rotate(0 11 23)"><text x="11" y="32" font-family="Virgil, Segoe UI Emoji" font-size="36px" fill="#000000" text-anchor="middle" style="white-space: pre;" direction="ltr">X</text></g><g stroke-linecap="round" transform="translate(165.60000610351562 328.6000671386719) rotate(0 16.4000244140625 16.399993896484375)"><path d="M0.18 -0.66 C10.91 1.16, 17.82 0.59, 33.61 -1.75 M0.98 0.16 C13.24 0.41, 24.89 -0.1, 33.4 0.78 M34.8 0.46 C34.16 8.88, 32.89 22.33, 31.08 33.85 M31.91 -0.78 C33.39 11.71, 32.56 21.31, 32.53 33.02 M32.19 34.66 C24.41 34.25, 14.46 33.27, -0.43 34.57 M33.61 31.95 C22.55 31.76, 11.6 32.21, 0.99 31.99 M0.59 32.92 C-0.05 21.86, 1.1 13.18, -1.35 1.64 M-0.1 32.46 C0.63 24.36, -0.28 16.34, -0.6 0" stroke="#000000" stroke-width="1" fill="none"></path></g><g stroke-linecap="round" transform="translate(216.79995727539062 385.49993896484375) rotate(0 126.39999389648438 15.599998474121094)"><path d="M0 0 C0 0, 0 0, 0 0 M0 0 C0 0, 0 0, 0 0 M0.12 7.18 C1.23 5.26, 2.58 2.21, 4.47 0.83 M-0.18 6.09 C0.86 5.12, 2.47 2.95, 5.13 -0.04 M0.17 13.2 C1.19 7.99, 6.72 5.32, 9.24 -1.27 M0.18 12.35 C3.14 7.99, 6.49 5.64, 10.82 -0.31 M1.41 20.05 C5.66 13.27, 10.62 4.15, 15.21 0.11 M0.17 17.78 C5.81 11.81, 11.82 4.66, 14.88 -0.64 M-1.64 24.53 C7.22 16.56, 16.18 6.79, 21.09 1.04 M0.06 24.81 C6.81 16.47, 14.01 9.19, 21.46 -0.27 M-1.6 29.81 C8.86 22.28, 16.34 10.79, 28.11 0.24 M1 31.47 C7.23 21.74, 15.21 11.75, 26.67 -0.47 M1.29 33.09 C12.02 24.8, 20.2 12.62, 30.02 -0.41 M2.39 34.06 C7.51 27.43, 14.12 20.38, 32.05 -0.95 M7.67 34.41 C15.84 27.72, 18.93 18.65, 35.2 2.08 M8.8 33.4 C17.58 22.66, 27.1 10.51, 37.39 -0.01 M12.86 35.24 C20.54 24.96, 23.27 21.41, 43.7 -1.97 M12.15 32.99 C24.08 20.78, 34.39 8.9, 42.2 -0.72 M20.47 35.33 C29.47 22.53, 42.52 6.66, 45.69 -0.62 M17.64 33.55 C24.25 26.26, 30.73 19.02, 46.51 1.01 M22.24 34.08 C32.02 24.6, 37.83 15.1, 54.52 -2.07 M24.04 33.96 C34.85 19.83, 47.6 6.51, 52.29 0.29 M31.08 32.68 C38.13 26.66, 44.85 16.83, 57.16 -0.45 M29.04 33.07 C39.74 22.33, 48.39 11.1, 58.32 1.09 M35.51 32.49 C42.22 28.59, 46.37 18.14, 63.24 -1.5 M34.11 33.68 C42.97 22.67, 53.1 12.53, 63.53 0.16 M40.75 33.16 C49.56 24.01, 57.38 12.2, 67.54 -0.39 M39.93 34.28 C47.72 25.18, 54.23 15.96, 67.93 0.88 M43.12 34.99 C57.26 19.44, 69.83 5.53, 75 0.57 M45.21 33.06 C54.55 23.26, 63.66 12.71, 73.93 -0.86 M51.13 33.1 C58.37 24.93, 69.76 14.11, 79.18 -1.82 M50.08 33.68 C61.39 21.52, 71.53 9.97, 79.25 -0.77 M55.9 31.73 C63.16 24.87, 73.99 12.61, 83.31 -1.41 M54.99 33.22 C64.36 22.05, 73.45 12.27, 84.29 -0.32 M60.22 34.46 C70.97 21.5, 79.5 12.28, 90.77 -0.45 M62.06 33.98 C67.91 23.85, 77.02 15.26, 91 -0.82 M65.04 34.48 C73.57 24.02, 82.21 12.29, 94.07 0.65 M65.95 33.43 C76.8 20.81, 86.72 10.26, 96.26 0.41 M70.42 32.81 C81.29 26.03, 88.23 16.59, 101.39 1.6 M71.25 34.04 C76.87 25.94, 83.69 20.69, 100.74 -0.05 M78.12 32.61 C87.74 22.04, 98.07 10.26, 105.54 0.45 M77.36 33.18 C86.17 22.16, 96.31 12.8, 106.29 0.15 M80.5 33.36 C91.72 21.13, 102.15 9.91, 110.49 -0.15 M81.85 32.95 C88.47 25.45, 95.94 19.01, 110.81 0.97 M87.09 33.16 C92.98 26.07, 99.66 17.22, 115.69 2.07 M87.33 34.12 C96.85 21.91, 105.33 11.98, 116.97 0.65 M93.58 34.95 C101.96 21.77, 113.79 12.69, 121.89 -0.55 M92.86 33.95 C98.25 25.62, 104.25 18.58, 122.37 -0.18 M96.29 32.77 C103.46 24.01, 112.42 17.02, 128.87 0.97 M98.78 34.1 C107.09 23.75, 116.08 13.18, 127.69 -0.38 M105.19 34.02 C111.28 23.76, 121.16 14.22, 131.8 -0.84 M104.12 32.49 C109.25 25.13, 116.94 17.94, 133.4 0.3 M110.4 33.7 C117.9 21.45, 130.66 9.28, 135.78 0.46 M109.44 33.18 C120.04 21.18, 131.5 7.03, 136.67 1.17 M114.55 33.41 C118.16 27.47, 124.41 18.81, 144.79 -0.62 M113.59 32.96 C124.56 20.07, 137.13 6.09, 142.7 0.39 M118.51 31.84 C127.51 26.22, 133.94 15.54, 148.21 0.77 M119.84 33.56 C129.95 20.85, 140.8 7.71, 147.62 0.89 M123.24 35.31 C134.99 21.95, 143.14 11.81, 153.82 -1.89 M124.03 33.68 C132.77 24.67, 139.85 16.52, 153.87 0.24 M130.07 32.72 C137.68 27.55, 141.92 18.77, 158.29 -0.28 M129.33 33.66 C135.9 25.41, 144.37 18.16, 159.04 0.52 M135.25 33.82 C145.19 23.02, 151.42 13.05, 164.21 -0.99 M135.06 33.39 C143.54 23.05, 153.69 13.47, 165.31 0.2 M138.91 31.47 C150.71 23.44, 155.73 14.63, 170.54 0.77 M140.09 34.09 C150.97 21.45, 160.64 9.34, 170.26 0.02 M143.59 31.89 C152.49 27.03, 161.61 14.79, 173.66 -0.65 M145.73 34.29 C156.59 21.39, 166.08 9.96, 174.27 -1.18 M151.22 32.87 C161.98 22.17, 172.39 11.65, 181.84 0.99 M151.08 33.63 C162.19 19.93, 173.47 8.51, 179.4 -0.49 M157.64 34.09 C167.35 22.7, 175.2 10.9, 184.24 -1.99 M155.93 32.77 C166.59 20.6, 177.91 8.26, 184.77 -1.18 M161.58 35.3 C171.99 18.9, 186.15 7.93, 189.45 -0.91 M162.11 33.26 C172.58 20.9, 180.79 10.14, 191.42 -0.69 M167.17 34.63 C173.89 24.6, 180.03 14.71, 194.42 -0.49 M166.37 33.4 C177.3 22.48, 187.65 8.95, 195.68 -0.88 M172.95 34.78 C179.67 24.2, 184.5 19.54, 203.02 -0.6 M171.77 34.14 C182.22 22.47, 190.15 12.14, 202.06 -0.07 M178.33 33.34 C187.3 22.14, 195.12 11.25, 207.01 -2.01 M176.54 32.93 C186.95 22.9, 196.83 12.02, 206.65 -1.19 M184.64 32.96 C189.29 25.72, 199.92 17, 212.55 -0.12 M183.47 33.61 C192.31 22.31, 202.71 11.31, 211.92 0.07 M189.61 31.68 C201.13 19.7, 210.53 6.16, 217.21 1.23 M188.77 34.31 C196.82 23.84, 206.58 12.94, 218.16 -0.82 M192.36 33.11 C203.31 22.65, 210.33 14.24, 224.45 0.1 M193.45 33.23 C203.32 22.18, 213.73 10.63, 222.35 0.61 M199.92 32.73 C206.96 20.91, 220.74 9.55, 228.61 -1.39 M198.19 32.66 C209.32 20.18, 221.7 7.42, 227.51 -0.29 M204.19 32.11 C216.42 20.71, 227.8 7.76, 233.46 1.27 M204.74 32.72 C212.83 24.82, 220.08 17.39, 233.58 0.61 M208.51 33.19 C220.71 18.7, 232.65 7.57, 236.5 1.92 M208.75 33.31 C215.98 28.01, 220.75 19.52, 238.14 0.81 M216.58 32.48 C225.31 20.83, 235.4 10.49, 242.74 -1.77 M215.2 33.98 C226.36 19.77, 236.67 7.76, 244.59 -0.67 M219.02 35.39 C224.89 25.63, 233.31 18.6, 250.51 2.27 M219.21 33.77 C228.76 25.39, 235.2 15.03, 248.28 0.83 M225.69 35.13 C232.89 25.54, 240.31 16.96, 255.13 0.17 M224.83 33.87 C232.77 24.52, 241.22 13.86, 254.56 0.98 M231.47 35.29 C236.98 24.98, 247.4 13.66, 252.79 5.48 M231.14 33.72 C238.3 26.02, 244.03 16.37, 253.09 7.35 M234.05 32.3 C237.93 28.16, 243.84 23.11, 253.34 11.76 M236.43 33.17 C242.66 25.69, 249.12 19.91, 254.94 11.74 M242.2 34.41 C246.24 30.64, 247.74 26.33, 253.72 18.01 M240.94 33.08 C244.34 29.85, 247.24 26.8, 254.39 19.1 M246.4 32.9 C249.7 31.44, 251.1 28.94, 254.19 25.85 M245.89 33.44 C248.64 30.55, 251.67 27.83, 253.93 25.17" stroke="#ced4da" stroke-width="0.5" fill="none"></path><path d="M-0.83 -0.79 C96.16 0.82, 189.77 0.66, 252.38 -0.91 M-0.12 -0.37 C69.77 1.07, 138.79 0.28, 253.42 0.29 M254.65 1.61 C251.96 8.83, 253.45 17.03, 252.39 31.41 M252.57 -0.5 C252.82 8.05, 253.47 18.64, 253.55 31.26 M253.51 31.46 C180.81 31.86, 109.41 30.3, -0.68 32.2 M253.18 31.75 C174.88 33.41, 97.05 32.39, 0.04 30.52 M0.84 31.34 C0.59 20.64, -1.38 6.14, -1.28 1.62 M0.98 30.27 C0.36 23.72, -0.73 14.24, -0.12 -0.74" stroke="#000000" stroke-width="1" fill="none"></path></g><g transform="translate(312.199951171875 388.59993743896484) rotate(0 31 12.5)"><text x="31" y="18" font-family="Virgil, Segoe UI Emoji" font-size="20px" fill="#000000" text-anchor="middle" style="white-space: pre;" direction="ltr">item 4</text></g><g stroke-linecap="round" transform="translate(542.7999572753906 387.09999084472656) rotate(0 21.600006103515625 16)"><path d="M-0.03 -0.17 L43.4 -1.38 L43.01 33.64 L0.24 33.8" stroke="none" stroke-width="0" fill="#fa5252"></path><path d="M0.69 0.97 C11.12 0.98, 25.27 -0.9, 42.67 1.98 M0.71 0.87 C12.7 0.09, 25.15 0.56, 43.21 -0.64 M42.56 -0.56 C44.34 8.32, 43.09 20.37, 42.95 30.01 M43.53 -0.92 C44.1 9.74, 43.88 18.14, 43.01 32.06 M41.93 33.38 C29.41 31.53, 18.39 33.3, 0.19 32.1 M43.64 32.55 C27.51 31.57, 9.88 31.45, 0.74 31.53 M0.44 33.12 C-1.66 21.23, -1.41 15.47, -0.62 -0.04 M0.35 32.92 C-1.05 21.79, -0.44 11.18, -0.3 -0.37" stroke="#000000" stroke-width="1" fill="none"></path></g><g transform="translate(553.4999389648438 378.39996337890625) rotate(0 11 23)"><text x="11" y="32" font-family="Virgil, Segoe UI Emoji" font-size="36px" fill="#000000" text-anchor="middle" style="white-space: pre;" direction="ltr">X</text></g><g stroke-linecap="round" transform="translate(164.79995727539062 385) rotate(0 16.4000244140625 16.399993896484375)"><path d="M-1.77 0.77 C7.72 -1.27, 15.95 1.82, 32.45 -0.3 M0.5 -0.11 C9.09 0.07, 16.67 -0.93, 32.95 0.93 M33.65 -1.76 C32.28 12.69, 32.45 22.97, 32.45 32.34 M33.78 0.7 C33.66 8.25, 32.71 16.46, 32.58 33.24 M31 32.26 C21.61 34.26, 12.28 33.13, 1.72 33.75 M33.8 32.08 C20.78 32.14, 9.41 32.5, -0.16 33.22 M-1.53 31.11 C-1.35 24.35, -0.69 12.61, 0.27 1.95 M-0.73 32.63 C-0.24 25.28, -0.42 18.87, -0.02 -0.08" stroke="#000000" stroke-width="1" fill="none"></path></g><g transform="translate(168.39996337890625 400.4000244140625) rotate(0 14 -3.60003662109375)" stroke="none" fill="#2b8a3e"><path d="M 0 -0.60003662109375 Q 0 -0.60003662109375 0 -0.60003662109375 0 -0.60003662109375 0 -0.60003662109375 0 -0.60003662109375 0 -0.60003662109375 0 -0.60003662109375 0 -0.60003662109375 0 -0.60003662109375 0.25646191447524014 -0.8172432723817948 0.5129238289504803 -1.0344499236698397 1.5944963372575023 -1.4984370056663145 2.676068845564524 -1.9624240876627892 3.8533683007221304 -1.084056573466146 5.030667755879737 -0.2056890592695031 5.979781628086396 1.0952160840618352 6.928895500293056 2.3961212273931736 8.006568611100125 2.920000182912326 9.084241721907196 3.443879138431478 10.477448562973795 1.469111759826894 11.870655404040392 -0.5056556187776904 12.70800776302085 -1.9462780218150884 13.54536012200131 -3.3869004248524863 14.8353785131302 -4.972637661009018 16.12539690425909 -6.5583748971655496 18.25287761316565 -8.380895590792754 20.380358322072208 -10.203416284419957 21.736885783071937 -11.698484896298178 23.093413244071666 -13.193553508176398 24.15373365381464 -14.589139256576994 25.21405406355761 -15.984725004977589 26.129517628359665 -16.930885198394016 27.044981193161714 -17.87704539181044 28.348536851438432 -17.69255881815088 29.652092509715146 -17.508072244491316 30.269050527868014 -16.345035076588772 30.886008546020882 -15.181997908686226 30.307730536451864 -13.999252292023549 29.729452526882845 -12.81650667536087 28.432687937230547 -12.589142981887635 27.13592334757825 -12.3617792884144 26.189763154161824 -13.277242853216451 25.2436029607454 -14.192706418018503 25.42808953440496 -15.496262076295219 25.61257610806452 -16.799817734571935 26.77561327596706 -17.416775752724803 27.938650443869605 -18.03373377087767 29.121396060532284 -17.455455761308652 30.304141677194966 -16.877177751739634 30.5315053706682 -15.580413162087337 30.758869064141436 -14.283648572435041 29.10001914723944 -12.207794091355778 27.441169230337444 -10.131939610276515 25.929549200768072 -8.291471666012804 24.4179291711987 -6.451003721749092 22.55676778319447 -5.016487463990589 20.69560639519024 -3.5819712062320863 19.476427047740422 -2.1860172817712566 18.25724770029061 -0.7900633573104268 17.341649397543158 0.8497235037262664 16.42605109479571 2.4895103647629595 15.558143263830942 3.865170705955743 14.690235432866173 5.240831047148527 13.87354976062488 6.67887538905656 13.056864088383584 8.116919730964593 11.762302720635741 9.152790764304665 10.467741352887897 10.188661797644736 8.758769996986073 9.95551346270771 7.049798641084249 9.722365127770683 5.727952467952472 8.592663618284888 4.406106294820694 7.4629621087990925 2.9539744435245305 5.527389331581732 1.5018425922283662 3.5918165543643714 0.5225523029631356 2.874893206809193 -0.45673798630209517 2.157969859254014 -0.3348217523528503 1.108680136823255 -0.21290551840360533 0.059390414392495816 -0.10645275920180267 -0.2703231033506271 0 -0.60003662109375 0 -0.60003662109375 0 -0.60003662109375 0 -0.60003662109375 0 -0.60003662109375 NaN NaN NaN NaN NaN NaN NaN NaN NaN NaN NaN NaN NaN NaN NaN NaN NaN NaN NaN NaN NaN NaN Z"></path></g><g transform="translate(170.39996337890625 342.3999938964844) rotate(0 14 -3.60003662109375)" stroke="none" fill="#087f5b"><path d="M 0 -0.60003662109375 Q 0 -0.60003662109375 0 -0.60003662109375 0 -0.60003662109375 0 -0.60003662109375 0 -0.60003662109375 0 -0.60003662109375 0 -0.60003662109375 0 -0.60003662109375 0 -0.60003662109375 0.25646191447524014 -0.8172432723817948 0.5129238289504803 -1.0344499236698397 1.5944963372575023 -1.4984370056663145 2.676068845564524 -1.9624240876627892 3.8533683007221304 -1.084056573466146 5.030667755879737 -0.2056890592695031 5.979781628086396 1.0952160840618352 6.928895500293056 2.3961212273931736 8.006568611100125 2.920000182912326 9.084241721907196 3.443879138431478 10.477448562973795 1.469111759826894 11.870655404040392 -0.5056556187776904 12.70800776302085 -1.9462780218150884 13.54536012200131 -3.3869004248524863 14.8353785131302 -4.972637661009018 16.12539690425909 -6.5583748971655496 18.25287761316565 -8.380895590792754 20.380358322072208 -10.203416284419957 21.736885783071937 -11.698484896298178 23.093413244071666 -13.193553508176398 24.15373365381464 -14.589139256576994 25.21405406355761 -15.984725004977589 26.129517628359665 -16.930885198394016 27.044981193161714 -17.87704539181044 28.348536851438432 -17.69255881815088 29.652092509715146 -17.508072244491316 30.269050527868014 -16.345035076588772 30.886008546020882 -15.181997908686226 30.307730536451864 -13.999252292023549 29.729452526882845 -12.81650667536087 28.432687937230547 -12.589142981887635 27.13592334757825 -12.3617792884144 26.189763154161824 -13.277242853216451 25.2436029607454 -14.192706418018503 25.42808953440496 -15.496262076295219 25.61257610806452 -16.799817734571935 26.77561327596706 -17.416775752724803 27.938650443869605 -18.03373377087767 29.121396060532284 -17.455455761308652 30.304141677194966 -16.877177751739634 30.5315053706682 -15.580413162087337 30.758869064141436 -14.283648572435041 29.10001914723944 -12.207794091355778 27.441169230337444 -10.131939610276515 25.929549200768072 -8.291471666012804 24.4179291711987 -6.451003721749092 22.55676778319447 -5.016487463990589 20.69560639519024 -3.5819712062320863 19.476427047740422 -2.1860172817712566 18.25724770029061 -0.7900633573104268 17.341649397543158 0.8497235037262664 16.42605109479571 2.4895103647629595 15.558143263830942 3.865170705955743 14.690235432866173 5.240831047148527 13.87354976062488 6.67887538905656 13.056864088383584 8.116919730964593 11.762302720635741 9.152790764304665 10.467741352887897 10.188661797644736 8.758769996986073 9.95551346270771 7.049798641084249 9.722365127770683 5.727952467952472 8.592663618284888 4.406106294820694 7.4629621087990925 2.9539744435245305 5.527389331581732 1.5018425922283662 3.5918165543643714 0.5225523029631356 2.874893206809193 -0.45673798630209517 2.157969859254014 -0.3348217523528503 1.108680136823255 -0.21290551840360533 0.059390414392495816 -0.10645275920180267 -0.2703231033506271 0 -0.60003662109375 0 -0.60003662109375 0 -0.60003662109375 0 -0.60003662109375 0 -0.60003662109375 NaN NaN NaN NaN NaN NaN NaN NaN NaN NaN NaN NaN NaN NaN NaN NaN NaN NaN NaN NaN NaN NaN Z"></path></g><g transform="translate(582.0000610351562 104.69999694824219) rotate(0 143.5 17.5)"><text x="0" y="25" font-family="Virgil, Segoe UI Emoji" font-size="28px" fill="#364fc7" text-anchor="start" style="white-space: pre;" direction="ltr">(can filter as typed)</text></g><g transform="translate(615.0999755859375 209.69989013671875) rotate(0 146 35)"><text x="0" y="25" font-family="Virgil, Segoe UI Emoji" font-size="28px" fill="#364fc7" text-anchor="start" style="white-space: pre;" direction="ltr">(drag &amp; drop </text><text x="0" y="60" font-family="Virgil, Segoe UI Emoji" font-size="28px" fill="#364fc7" text-anchor="start" style="white-space: pre;" direction="ltr">feature in list items)</text></g><g transform="translate(624.89990234375 345.4999084472656) rotate(0 122.5 35)"><text x="0" y="25" font-family="Virgil, Segoe UI Emoji" font-size="28px" fill="#364fc7" text-anchor="start" style="white-space: pre;" direction="ltr">(done items </text><text x="0" y="60" font-family="Virgil, Segoe UI Emoji" font-size="28px" fill="#364fc7" text-anchor="start" style="white-space: pre;" direction="ltr">goes to the last)</text></g><g stroke-linecap="round" transform="translate(488 209.3999786376953) rotate(0 21.600006103515625 16)"><path d="M-0.21 0.02 L44.48 0.64 L41.28 31.1 L-1.36 32.3" stroke="none" stroke-width="0" fill="#ced4da"></path><path d="M0.33 0.3 C13.98 -0.66, 31.31 1.29, 43.82 1.1 M-0.65 0.87 C13.42 -0.13, 27.65 -0.36, 42.91 0.06 M42.19 0.67 C44.43 10.61, 43.91 23.59, 42.26 31.27 M43.42 -0.39 C44.26 7, 42.84 13.08, 42.82 31.47 M44 33.1 C32.35 32.97, 24.08 31.18, -1.11 31.69 M43.43 31.9 C29.73 31.5, 18.23 32.33, 0.09 32.13 M1.5 30.88 C-1.5 21.76, 0.13 15.34, -1.76 0.86 M0.06 32.13 C-0.36 20.59, -0.59 9.85, -0.47 -0.08" stroke="#000000" stroke-width="1" fill="none"></path></g><g stroke-linecap="round" transform="translate(489.2000427246094 271.79994201660156) rotate(0 21.600006103515625 16)"><path d="M1.28 0.64 L41.28 -0.9 L41.84 32.3 L0.55 33.34" stroke="none" stroke-width="0" fill="#ced4da"></path><path d="M-0.8 -0.26 C18.61 1.61, 34.35 1.03, 43.63 1.6 M-0.47 -0.45 C9.65 -1.05, 19.29 -0.32, 44.07 -0.13 M44.47 -1.78 C43.79 5.91, 42.1 13.48, 41.27 32.85 M44.13 0.49 C42.77 10.63, 42.89 20.58, 42.48 32.17 M42.2 32.79 C29.01 31.24, 12.59 31.93, -0.18 31 M42.31 31.84 C33.8 32.63, 24.1 32.09, -0.41 32.46 M-1.35 30.06 C0.04 24.41, -2 17.83, 1.14 1.12 M-0.18 32.02 C-0.43 24.63, -0.49 15.76, -0.1 0.01" stroke="#000000" stroke-width="1" fill="none"></path></g><g stroke-linecap="round" transform="translate(485.2000427246094 329.60008239746094) rotate(0 21.600006103515625 16)"><path d="M-1.92 -0.9 L41.84 0.3 L43.75 33.34 L1.8 32.31" stroke="none" stroke-width="0" fill="#ced4da"></path><path d="M1.74 1.68 C14.23 1.15, 27.65 1.66, 41.73 -1.3 M-0.13 -0.68 C16.43 0.25, 34.31 0.07, 42.42 -0.51 M43.95 -1.19 C42.46 9.94, 41.47 22.18, 43.8 32.45 M42.7 0.07 C43.12 7.83, 42.78 16.89, 43.62 32.4 M43.77 31 C26.76 31.86, 12.36 31.17, -1.56 32.46 M43.4 32.67 C30.76 32.07, 17.74 32.39, -0.65 32.75 M0.28 31.93 C-1.54 25.05, 1.36 17.49, -0.95 0.11 M-0.41 32.71 C-0.42 21.9, -0.05 11.98, 0.64 0.32" stroke="#000000" stroke-width="1" fill="none"></path></g><g stroke-linecap="round" transform="translate(484.3999938964844 386.00001525878906) rotate(0 21.600006103515625 16)"><path d="M-1.36 0.3 L43.75 1.34 L45 32.31 L0.05 33.01" stroke="none" stroke-width="0" fill="#ced4da"></path><path d="M0.62 1.1 C12.82 1.24, 23.31 -1.66, 44.94 -0.94 M-0.29 0.06 C11.89 0.17, 21.26 -0.21, 43.53 0.63 M42.26 -0.73 C41.39 7.61, 43.92 13.96, 42.42 33.85 M42.82 -0.53 C42.32 11.34, 43.46 22.74, 43.75 31.5 M42.09 31.69 C28.35 30.79, 12.29 32.24, -0.2 30.23 M43.29 32.13 C30.52 32.75, 18.01 33.04, -0.56 31.33 M-1.76 32.86 C1.1 26.63, -0.99 19.13, 0.26 -0.36 M-0.47 31.92 C0.03 22.33, 0.77 12.97, -0.96 -0.45" stroke="#000000" stroke-width="1" fill="none"></path></g><g stroke-linecap="round" transform="translate(497.05977403315114 228.14129043048996) rotate(32.93223680721193 3.0500999591606615 5.422397533321657)"><path d="M3.82 0.43 L4.84 3.05 L3.38 10.26 L1.05 3.4" stroke="none" stroke-width="0" fill="#12b886" fill-rule="evenodd"></path><path d="M3.67 0.87 C5.12 1.45, 5.22 2.03, 6.49 6.02 M3.9 0.02 C4.37 1.72, 5.54 3.77, 6.04 6.47 M6.32 5.7 C5.65 6.98, 5.38 8.89, 4.83 11.35 M6.29 6.25 C5.81 7.29, 4.45 10.07, 4.38 10.77 M3.64 9.83 C2.07 8.93, 2.25 7.36, 1.18 6.1 M4.53 10.97 C1.95 8.93, 1.19 6.96, -0.11 5.99 M-0.98 6.95 C2.86 4.43, 2.72 1.16, 4.38 -0.37 M0.13 5.48 C2.07 3.19, 2.45 2.2, 4.38 -0.06" stroke="#2b8a3e" stroke-width="1" fill="none"></path></g><g stroke-linecap="round" transform="translate(497.5116422898152 224.24393641274582) rotate(310.2001699566727 8.69842731148043 2.7112009213283557)"><path d="M0.73 -0.82 L15.44 0.86 L19.81 3.3 L-3.78 4.23" stroke="none" stroke-width="0" fill="#12b886"></path><path d="M-0.16 0.38 C5.55 -2.54, 12.75 -0.48, 18.31 -2.26 M0.18 1.62 C6.44 -0.67, 9.47 -0.12, 17.57 0.04 M17.08 0.87 C16.62 0.81, 17.83 3.37, 18.28 5.3 M17.87 0.39 C17.84 1.33, 16.98 2.56, 17.59 5.3 M20.27 4.85 C12.26 4.03, 7.7 3.78, -1.38 4.41 M16.02 4.02 C13.08 4.29, 7.33 7.06, -0.63 3.89 M0.51 5.75 C0.41 3.86, 0.2 3.71, -0.65 -0.54 M0.27 5.75 C-0.29 3.54, -0.22 1.2, -0.13 -0.19" stroke="#2b8a3e" stroke-width="1" fill="none"></path></g><g stroke-linecap="round" transform="translate(512.0278529365341 213.62507116510085) rotate(42.6627073184564 2.5982317024942176 2.8241658308274395)"><path d="M3.42 1.97 L1.95 1.22 L3.36 6.4 L3.37 2.93" stroke="none" stroke-width="0" fill="#fab005"></path><path d="M-0.31 -0.44 C2.13 0.49, 3.01 -0.42, 4.6 -0.76 M-0.34 -0.29 C1.65 0.05, 2.46 0.22, 5.24 -0.07 M4.22 0.02 C4.44 2.01, 6.31 3.16, 6.22 4.94 M4.74 -0.41 C4.96 1.42, 5.51 3.26, 4.74 5.32 M5.63 5.03 C4.72 6.4, 3.45 5.8, 0.3 5.72 M5.19 5.33 C3.76 6.15, 1.6 5.54, 0.07 6.06 M0.79 5.35 C-0.24 3.11, 1.01 0.96, -1.04 0.22 M0.41 5.38 C0 4.95, -0.07 3.58, -0.23 -0.06" stroke="#e67700" stroke-width="1" fill="none"></path></g><g stroke-linecap="round" transform="translate(501.0534625013298 291.77798929422045) rotate(32.93223680721193 3.0500999591606615 5.422397533321657)"><path d="M6.34 0.97 L2.9 3.17 L4.24 12.79 L-3.65 7.32" stroke="none" stroke-width="0" fill="#12b886" fill-rule="evenodd"></path><path d="M5.23 0.92 C3.73 1.65, 5.96 1.97, 4.97 5.6 M3.7 -0.34 C4.97 2.13, 5.63 4.16, 5.98 6.57 M6.34 6.54 C5.95 7.06, 4.77 8.48, 4.45 11.16 M6.24 6.39 C5.11 7.3, 4.41 9.31, 4.15 10.69 M3.72 10.63 C2.63 10.44, 0.65 6.97, 0.96 7.21 M4.13 10.67 C2.18 8.65, 0.77 6.9, 0.2 5.83 M1.17 5.57 C0.54 5.36, 2.99 2.69, 4.46 1.3 M0.69 5.62 C1.1 4.7, 1.87 3.38, 4.47 0.56" stroke="#2b8a3e" stroke-width="1" fill="none"></path></g><g stroke-linecap="round" transform="translate(501.5053307579939 287.88063527647637) rotate(310.2001699566727 8.69842731148043 2.7112009213283557)"><path d="M0.97 -3.2 L14.57 0.24 L19.34 1.77 L1.32 9.18" stroke="none" stroke-width="0" fill="#12b886"></path><path d="M2.5 -1.88 C4.75 2.51, 5.87 -3.43, 16.3 0.34 M-0.93 0.93 C5.71 1.12, 11.02 -0.18, 18.97 -1.06 M17.95 0.46 C17.27 0.85, 17.54 2.64, 17.72 5.48 M17.8 -0.4 C17.18 1.41, 17.73 3.9, 17.23 5.43 M16.8 4.96 C15.33 2.75, 4.6 8.01, 3.35 7.74 M16.92 4.18 C12.68 4.41, 9.26 6.05, -0.46 3.82 M-0.33 5.16 C0.45 4.98, -0.62 2.96, 0.98 -0.51 M-0.28 5.52 C0.11 3.53, 0.27 2.17, 0.42 0.32" stroke="#2b8a3e" stroke-width="1" fill="none"></path></g><g stroke-linecap="round" transform="translate(516.021541404713 277.2617700288314) rotate(42.6627073184564 2.5982317024942176 2.8241658308274395)"><path d="M-3.2 -2.83 L5.44 1.95 L1.54 6.97 L3.76 9.27" stroke="none" stroke-width="0" fill="#fab005"></path><path d="M-0.56 0.19 C2.41 -0.78, 2.2 -0.4, 5.3 -0.22 M0.28 0.26 C2.3 0.45, 3.92 0.53, 4.88 -0.52 M5.68 -0.09 C4.98 1.68, 5.7 3.32, 5.26 6.16 M4.78 -0.18 C4.74 1.85, 5.39 2.75, 5.21 5.64 M5.06 6.58 C3.35 4.91, 3.86 6.63, 0.69 4.62 M4.83 5.28 C3.16 5.27, 1.93 5.48, -0.48 5.43 M-0.27 6.13 C0.91 3.27, 0.27 3.17, -0.54 0.37 M0.1 5.87 C-0.2 3.82, 0.26 1.66, 0.33 0.14" stroke="#e67700" stroke-width="1" fill="none"></path></g><g stroke-linecap="round" transform="translate(497.0534625013298 349.17801370828295) rotate(32.93223680721193 3.0500999591606615 5.422397533321657)"><path d="M1.56 0.79 L6.69 6.71 L5.78 8.48 L-2.66 7.57" stroke="none" stroke-width="0" fill="#12b886" fill-rule="evenodd"></path><path d="M3.75 -1.2 C5.56 2.31, 5.77 2.84, 6.09 7.13 M3.68 0.01 C4.32 1.68, 4.18 2.35, 5.67 6.34 M5.15 5.36 C6.08 8.29, 5.44 8.09, 3.21 11.3 M6.21 5.66 C5.5 8.02, 4.31 8.86, 3.78 10.85 M5.11 12.01 C3.05 8.72, 1.45 9.73, 1.14 6.19 M4.41 10.35 C3.3 9.73, 1.76 8.94, 0.4 5.49 M1.41 7.02 C1.54 4.77, 3.16 2.77, 4 -1.37 M0.51 5.8 C0.23 4.7, 1.97 2.93, 3.44 -0.59" stroke="#2b8a3e" stroke-width="1" fill="none"></path></g><g stroke-linecap="round" transform="translate(497.5053307579939 345.28065969053887) rotate(310.2001699566727 8.69842731148043 2.7112009213283557)"><path d="M0.79 0.59 L18.1 1.78 L15.03 2.76 L1.57 6.86" stroke="none" stroke-width="0" fill="#12b886"></path><path d="M-3.28 2.14 C7.7 0.92, 10.47 0.04, 20.49 -3.07 M0.03 -0.12 C5.21 -1.56, 7.58 -0.99, 18.33 0.23 M16.74 0.64 C18.17 2.38, 16.4 2.65, 17.86 5.94 M17.05 0.19 C17.72 1.05, 16.85 2.43, 17.41 5.09 M20.63 5.59 C8.36 4.11, 8.18 8.88, 0.52 3.43 M16.04 6.16 C12.53 4.79, 8.5 6.74, -1.41 4.34 M0.77 5.78 C0.12 5.17, -0.31 3.2, -1.03 -0.92 M-0.15 5.01 C-0.04 3.69, -0.4 1.04, -0.45 -0.33" stroke="#2b8a3e" stroke-width="1" fill="none"></path></g><g stroke-linecap="round" transform="translate(512.021541404713 334.6617944428939) rotate(42.6627073184564 2.5982317024942176 2.8241658308274395)"><path d="M0.59 0.71 L6.98 -2.36 L2.54 7.22 L1.44 3.45" stroke="none" stroke-width="0" fill="#fab005"></path><path d="M0.64 0.31 C2.15 -0.75, 3.79 1.02, 4.28 -0.71 M-0.04 0.35 C1.28 -0.15, 3.24 0.28, 5.26 0.1 M5.86 0.84 C5.77 0.49, 4.24 3.45, 5.74 5.03 M5.39 0.37 C4.93 0.99, 4.99 3.06, 4.85 5.96 M5.25 4.8 C2.77 6.69, 2.26 5.9, -0.6 5.58 M5.42 5.72 C3.55 5.96, 2.73 5.15, -0.32 5.15 M0.37 5.84 C0.79 3.36, -0.11 0.52, -0.96 0.73 M-0.43 5.68 C0.17 3.24, -0.52 1.06, -0.35 0.11" stroke="#e67700" stroke-width="1" fill="none"></path></g><g stroke-linecap="round" transform="translate(495.25347470836107 403.9779709836736) rotate(32.93223680721193 3.0500999591606615 5.422397533321657)"><path d="M6.5 -1.57 L3.74 6.59 L0.71 11.99 L1.71 6.5" stroke="none" stroke-width="0" fill="#12b886" fill-rule="evenodd"></path><path d="M3.23 -0.04 C4.95 2.97, 5.3 4.44, 4.98 5.7 M4.5 0.23 C4.45 2.6, 5.71 4.68, 5.59 5.46 M6.74 5.96 C6.56 6.55, 4.38 9.46, 4.59 11.09 M5.62 5.74 C5.18 6.96, 5.1 8.89, 4.33 11.31 M4.81 10.81 C2.05 7.8, 1.34 6.41, 0.73 7.07 M3.71 10.6 C3.49 9.53, 2.27 8.26, 0.34 5.8 M-0.65 6.94 C2.02 2.85, 2.33 2.82, 4.43 -1.42 M-0.2 6.71 C1.65 3.76, 3.12 1.88, 4.28 -0.59" stroke="#2b8a3e" stroke-width="1" fill="none"></path></g><g stroke-linecap="round" transform="translate(495.7053429650251 400.0806169659295) rotate(310.2001699566727 8.69842731148043 2.7112009213283557)"><path d="M-1.57 -2.36 L17.99 -3.29 L18.54 7.13 L0.5 2.86" stroke="none" stroke-width="0" fill="#12b886"></path><path d="M-0.12 1.07 C7.55 0.54, 11.07 -2.86, 16.57 2.07 M0.62 -0.89 C6.76 0.24, 11.97 -1.66, 15.91 -0.36 M17.36 1.02 C16.62 1.31, 18.23 4.45, 17.65 5.17 M17.13 -0.45 C17 2.23, 17.6 4.67, 17.88 5.88 M17.31 4.28 C8.89 6.78, 4.95 7.66, 2.96 3.75 M16.72 6.88 C11.46 6.13, 5.62 6.19, -0.55 5.92 M0.71 5.88 C-0.88 3.96, 0.57 3.43, -1.07 0.26 M0.53 5.69 C-0.19 4.17, -0.13 2.34, -0.45 0.34" stroke="#2b8a3e" stroke-width="1" fill="none"></path></g><g stroke-linecap="round" transform="translate(510.2215536117443 389.4617517182845) rotate(42.6627073184564 2.5982317024942176 2.8241658308274395)"><path d="M-2.36 0.59 L1.91 1.14 L6.9 6.15 L-2.56 8.66" stroke="none" stroke-width="0" fill="#fab005"></path><path d="M0.32 0.96 C1.21 0.71, 1.3 -0.24, 5.82 0.12 M-0.26 0.4 C2.22 0.3, 3.73 -0.48, 5.09 0.28 M6.26 -0.9 C4.63 2.94, 5.89 4.61, 4.93 6.78 M4.73 -0.4 C5.16 1.86, 5.44 3.77, 5.67 5.65 M4.86 4.67 C3.99 5.05, 2.7 6.53, -0.5 5.95 M5.63 5.59 C4.04 5.51, 2.65 5.44, 0.15 5.2 M0.47 4.73 C-0.26 4.53, 0.39 1.1, 0.27 0.05 M0.28 5.37 C0.45 4.16, 0.25 2.65, 0.35 -0.22" stroke="#e67700" stroke-width="1" fill="none"></path></g><g stroke-linecap="round"><g transform="translate(283.37756528588943 346.02798886820676) rotate(0 58.5353833419224 -1.3196879003197068)"><path d="M-0.24 0.03 C19.27 -0.36, 96.94 -2.25, 116.75 -2.67 M-1.82 -1 C18.08 -1.18, 98.88 -1.23, 118.89 -1.26" stroke="#495057" stroke-width="2" fill="none"></path></g></g><g stroke-linecap="round"><g transform="translate(283.48877043591347 400.41395781300963) rotate(0 58.205942356567846 -1.2722394892526836)"><path d="M-0.13 0.88 C19.74 0.51, 98.55 -1.09, 118.07 -1.69 M-1.66 0.3 C18.18 -0.46, 97.07 -3.12, 117.25 -3.43" stroke="#495057" stroke-width="2" fill="none"></path></g></g></svg>